<?xml version="1.0" encoding="UTF-8" standalone="no"?>
<!-- Created with Inkscape (http://www.inkscape.org/) -->

<svg
   xmlns:dc="http://purl.org/dc/elements/1.1/"
   xmlns:cc="http://creativecommons.org/ns#"
   xmlns:rdf="http://www.w3.org/1999/02/22-rdf-syntax-ns#"
   xmlns:svg="http://www.w3.org/2000/svg"
   xmlns="http://www.w3.org/2000/svg"
   xmlns:xlink="http://www.w3.org/1999/xlink"
   xmlns:sodipodi="http://sodipodi.sourceforge.net/DTD/sodipodi-0.dtd"
   xmlns:inkscape="http://www.inkscape.org/namespaces/inkscape"
   width="744.09448"
   height="1052.3622"
   id="svg2"
   version="1.1"
   inkscape:version="0.48.3.1 r9886"
   sodipodi:docname="logo.svg">
  <defs
     id="defs4">
    <linearGradient
       id="linearGradient3795"
       inkscape:collect="always">
      <stop
         id="stop3797"
         offset="0"
         style="stop-color:#3d3d3d;stop-opacity:1" />
      <stop
         id="stop3799"
         offset="1"
         style="stop-color:#161616;stop-opacity:1" />
    </linearGradient>
    <linearGradient
       inkscape:collect="always"
       id="linearGradient3767">
      <stop
         style="stop-color:#333333;stop-opacity:1;"
         offset="0"
         id="stop3769" />
      <stop
         style="stop-color:#202020;stop-opacity:1"
         offset="1"
         id="stop3771" />
    </linearGradient>
    <linearGradient
       inkscape:collect="always"
       id="linearGradient3755">
      <stop
         style="stop-color:#f4f4f4;stop-opacity:1"
         offset="0"
         id="stop3757" />
      <stop
         style="stop-color:#e9e9e9;stop-opacity:1"
         offset="1"
         id="stop3759" />
    </linearGradient>
    <linearGradient
       inkscape:collect="always"
       xlink:href="#linearGradient3767"
       id="linearGradient3773"
       x1="6.996717"
       y1="1007.977"
       x2="6.996717"
       y2="1037.1121"
       gradientUnits="userSpaceOnUse" />
    <linearGradient
       inkscape:collect="always"
       xlink:href="#linearGradient3767"
       id="linearGradient3784"
       gradientUnits="userSpaceOnUse"
       x1="6.996717"
       y1="1007.977"
       x2="6.996717"
       y2="1037.1121" />
    <linearGradient
       inkscape:collect="always"
       xlink:href="#linearGradient3755"
       id="linearGradient3879"
       gradientUnits="userSpaceOnUse"
       gradientTransform="matrix(0.93333333,0,0,0.93333333,79.936462,-219.77898)"
       x1="0.21126761"
       y1="992.15094"
       x2="0.21126761"
       y2="1052.3755" />
    <linearGradient
       inkscape:collect="always"
       xlink:href="#linearGradient3795"
       id="linearGradient3881"
       gradientUnits="userSpaceOnUse"
       gradientTransform="translate(80.202087,-288.13968)"
       x1="6.996717"
       y1="1007.977"
       x2="6.996717"
       y2="1037.1121" />
    <linearGradient
       inkscape:collect="always"
       xlink:href="#linearGradient3755"
       id="linearGradient3883"
       gradientUnits="userSpaceOnUse"
       gradientTransform="matrix(0.93333333,0,0,0.93333333,79.936462,-219.77898)"
       x1="0.21126761"
       y1="992.15094"
       x2="0.21126761"
       y2="1052.3755" />
    <linearGradient
       inkscape:collect="always"
       xlink:href="#linearGradient3795"
       id="linearGradient3885"
       gradientUnits="userSpaceOnUse"
       gradientTransform="translate(80.202087,-288.13968)"
       x1="6.996717"
       y1="1007.977"
       x2="6.996717"
       y2="1037.1121" />
    <linearGradient
       inkscape:collect="always"
       xlink:href="#linearGradient3795"
       id="linearGradient3897"
       gradientUnits="userSpaceOnUse"
       gradientTransform="translate(80.202087,-288.13968)"
       x1="6.996717"
       y1="1007.977"
       x2="6.996717"
       y2="1037.1121" />
  </defs>
  <sodipodi:namedview
     id="base"
     pagecolor="#ffffff"
     bordercolor="#666666"
     borderopacity="1.0"
     inkscape:pageopacity="0.0"
     inkscape:pageshadow="2"
     inkscape:zoom="1.4142136"
     inkscape:cx="15.917217"
     inkscape:cy="273.59094"
     inkscape:document-units="px"
     inkscape:current-layer="layer1"
     showgrid="false"
     inkscape:showpageshadow="false"
     borderlayer="true"
     inkscape:window-width="1311"
     inkscape:window-height="744"
     inkscape:window-x="49"
     inkscape:window-y="24"
     inkscape:window-maximized="1" />
  <metadata
     id="metadata7">
    <rdf:RDF>
      <cc:Work
         rdf:about="">
        <dc:format>image/svg+xml</dc:format>
        <dc:type
           rdf:resource="http://purl.org/dc/dcmitype/StillImage" />
        <dc:title></dc:title>
      </cc:Work>
    </rdf:RDF>
  </metadata>
  <g
     inkscape:label="Camada 1"
     inkscape:groupmode="layer"
     id="layer1"
     transform="translate(0,2.472441e-5)">
    <g
       id="g3846"
       transform="translate(-31.112698,-44.547728)"
       inkscape:export-filename="/home/lfsilva/SparkleShare/central/res/img/logo.png"
       inkscape:export-xdpi="90"
       inkscape:export-ydpi="90">
      <rect
         y="704.42572"
         x="77.936462"
         height="60"
         width="60"
         id="rect3838"
         style="opacity:0;fill:#161616;fill-opacity:1;stroke:none" />
      <rect
         ry="2"
         rx="2"
         y="706.42572"
         x="79.936462"
         height="56"
         width="56"
         id="rect2985"
         style="fill:url(#linearGradient3883);fill-opacity:1;stroke:#cdcdcd;stroke-linecap:round;stroke-linejoin:round;stroke-opacity:1" />
      <path
         inkscape:connector-curvature="0"
         id="path3776"
         d="m 101.20209,719.53504 c -2.825537,10e-5 -5.27866,0.6015 -7.375003,1.8125 -2.08334,1.1979 -3.692713,2.9166 -4.8125,5.1562 -1.106773,2.2396 -1.656252,4.8568 -1.65625,7.8125 -2e-6,4.7265 1.14583,8.3438 3.4375,10.8438 2.304679,2.5 5.627593,3.75 9.937503,3.75 3.00779,0 5.71091,-0.5391 8.09375,-1.5938 l 0,-0.031 c 1.37282,0.6588 2.41106,1.3855 3.6875,1.6562 1.28905,0.2604 2.91145,0.375 4.8125,0.375 2.27863,0 4.24477,-0.3698 5.9375,-1.125 1.69269,-0.7682 3.00779,-1.8515 3.90625,-3.2187 0.89841,-1.3802 1.34372,-2.9479 1.34375,-4.7188 -3e-5,-1.9271 -0.50523,-3.5182 -1.46875,-4.7812 -0.95054,-1.2761 -2.63283,-2.4557 -5.09375,-3.5625 -2.56512,-1.1718 -4.16408,-1.9948 -4.75,-2.4375 -0.57293,-0.4427 -0.84376,-0.9401 -0.84375,-1.5 -1e-5,-0.5209 0.23176,-0.9609 0.6875,-1.3125 0.45572,-0.3516 1.18488,-0.5313 2.1875,-0.5313 1.94009,0 4.23696,0.6198 6.90625,1.8438 l 2.375,-5.9688 c -3.07294,-1.3671 -6.10679,-2.0311 -9.0625,-2.0312 -3.34637,10e-5 -5.96095,0.7162 -7.875,2.1875 -1.91407,1.4714 -2.875,3.526 -2.875,6.1562 0,1.4063 0.21354,2.6276 0.65625,3.6563 0.45572,1.0286 1.13801,1.9558 2.0625,2.75 0.93749,0.7943 2.35676,1.5911 4.21875,2.4375 2.05728,0.9245 3.31249,1.5442 3.78125,1.8437 0.48176,0.2995 0.8229,0.6068 1.03125,0.9063 0.22134,0.2864 0.34373,0.6094 0.34375,1 -2e-5,0.625 -0.27866,1.1589 -0.8125,1.5625 -0.53387,0.3907 -1.35418,0.5937 -2.5,0.5937 -1.32814,0 -2.78647,-0.2083 -4.375,-0.625 -1.54183,-0.417 -2.86018,-0.8782 -4.28125,-1.5937 l 0,-0.062 c -0.0215,0.01 -0.041,0.022 -0.0625,0.031 -0.0216,-0.011 -0.0409,-0.02 -0.0625,-0.031 l 0,0.062 c -1.15453,0.4721 -2.32637,0.8797 -3.46875,1.2187 -1.18492,0.3515 -2.39325,0.5313 -3.65625,0.5313 -4.179702,0 -6.281263,-2.7552 -6.281253,-8.25 -1e-5,-2.6432 0.502594,-4.7214 1.53125,-6.2188 1.028633,-1.5104 2.476549,-2.25 4.312503,-2.25 1.21092,0 2.35154,0.1615 3.40625,0.5 1.05466,0.3385 2.10154,0.7552 3.15625,1.25 l 2.375,-6.0625 c -2.81252,-1.3412 -5.78908,-2.0311 -8.875,-2.0312 z"
         style="font-size:40px;font-style:normal;font-variant:normal;font-weight:800;font-stretch:normal;text-align:center;line-height:125%;letter-spacing:0px;word-spacing:0px;writing-mode:lr-tb;text-anchor:middle;fill:url(#linearGradient3885);fill-opacity:1;stroke:#101010;stroke-width:0.5;stroke-linecap:round;stroke-linejoin:round;stroke-miterlimit:4;stroke-opacity:1;stroke-dasharray:none;font-family:Open Sans;-inkscape-font-specification:Open Sans Ultra-Bold" />
    </g>
    <g
       id="g3851"
       transform="matrix(0.66666667,0,0,0.66666667,157.50067,210.26084)"
       inkscape:export-filename="/home/lfsilva/SparkleShare/central/res/img/icon.png"
       inkscape:export-xdpi="90"
       inkscape:export-ydpi="90">
      <rect
         style="opacity:0;fill:#161616;fill-opacity:1;stroke:none"
         id="rect3853"
         width="60"
         height="60"
         x="77.936462"
         y="704.42572" />
      <g
         id="g3875"
         transform="matrix(0.88695652,0,0,0.88695652,12.201513,83.022039)">
        <rect
           ry="3.3823531"
           rx="3.3823531"
           y="706.42572"
           x="79.936462"
           height="56"
           width="56"
           id="rect3855"
           style="fill:url(#linearGradient3879);fill-opacity:1;stroke:#cdcdcd;stroke-width:1.69117653;stroke-linecap:round;stroke-linejoin:round;stroke-opacity:1" />
        <path
           inkscape:connector-curvature="0"
           id="path3857"
           d="m 101.20209,719.53504 c -2.825537,10e-5 -5.27866,0.6015 -7.375003,1.8125 -2.08334,1.1979 -3.692713,2.9166 -4.8125,5.1562 -1.106773,2.2396 -1.656252,4.8568 -1.65625,7.8125 -2e-6,4.7265 1.14583,8.3438 3.4375,10.8438 2.304679,2.5 5.627593,3.75 9.937503,3.75 3.00779,0 5.71091,-0.5391 8.09375,-1.5938 l 0,-0.031 c 1.37282,0.6588 2.41106,1.3855 3.6875,1.6562 1.28905,0.2604 2.91145,0.375 4.8125,0.375 2.27863,0 4.24477,-0.3698 5.9375,-1.125 1.69269,-0.7682 3.00779,-1.8515 3.90625,-3.2187 0.89841,-1.3802 1.34372,-2.9479 1.34375,-4.7188 -3e-5,-1.9271 -0.50523,-3.5182 -1.46875,-4.7812 -0.95054,-1.2761 -2.63283,-2.4557 -5.09375,-3.5625 -2.56512,-1.1718 -4.16408,-1.9948 -4.75,-2.4375 -0.57293,-0.4427 -0.84376,-0.9401 -0.84375,-1.5 -1e-5,-0.5209 0.23176,-0.9609 0.6875,-1.3125 0.45572,-0.3516 1.18488,-0.5313 2.1875,-0.5313 1.94009,0 4.23696,0.6198 6.90625,1.8438 l 2.375,-5.9688 c -3.07294,-1.3671 -6.10679,-2.0311 -9.0625,-2.0312 -3.34637,10e-5 -5.96095,0.7162 -7.875,2.1875 -1.91407,1.4714 -2.875,3.526 -2.875,6.1562 0,1.4063 0.21354,2.6276 0.65625,3.6563 0.45572,1.0286 1.13801,1.9558 2.0625,2.75 0.93749,0.7943 2.35676,1.5911 4.21875,2.4375 2.05728,0.9245 3.31249,1.5442 3.78125,1.8437 0.48176,0.2995 0.8229,0.6068 1.03125,0.9063 0.22134,0.2864 0.34373,0.6094 0.34375,1 -2e-5,0.625 -0.27866,1.1589 -0.8125,1.5625 -0.53387,0.3907 -1.35418,0.5937 -2.5,0.5937 -1.32814,0 -2.78647,-0.2083 -4.375,-0.625 -1.54183,-0.417 -2.86018,-0.8782 -4.28125,-1.5937 l 0,-0.062 c -0.0215,0.01 -0.041,0.022 -0.0625,0.031 -0.0216,-0.011 -0.0409,-0.02 -0.0625,-0.031 l 0,0.062 c -1.15453,0.4721 -2.32637,0.8797 -3.46875,1.2187 -1.18492,0.3515 -2.39325,0.5313 -3.65625,0.5313 -4.179702,0 -6.281263,-2.7552 -6.281253,-8.25 -1e-5,-2.6432 0.502594,-4.7214 1.53125,-6.2188 1.028633,-1.5104 2.476549,-2.25 4.312503,-2.25 1.21092,0 2.35154,0.1615 3.40625,0.5 1.05466,0.3385 2.10154,0.7552 3.15625,1.25 l 2.375,-6.0625 c -2.81252,-1.3412 -5.78908,-2.0311 -8.875,-2.0312 z"
           style="font-size:40px;font-style:normal;font-variant:normal;font-weight:800;font-stretch:normal;text-align:center;line-height:125%;letter-spacing:0px;word-spacing:0px;writing-mode:lr-tb;text-anchor:middle;fill:url(#linearGradient3881);fill-opacity:1;stroke:#101010;stroke-width:0.84558827;stroke-linecap:round;stroke-linejoin:round;stroke-miterlimit:4;stroke-opacity:1;stroke-dasharray:none;font-family:Open Sans;-inkscape-font-specification:Open Sans Ultra-Bold" />
      </g>
    </g>
    <g
       transform="translate(50.204575,-44.547728)"
       id="g3887"
       inkscape:export-filename="/home/lfsilva/SparkleShare/central/res/img/watermark.png"
       inkscape:export-xdpi="90"
       inkscape:export-ydpi="90">
      <rect
         style="opacity:0;fill:#161616;fill-opacity:1;stroke:none"
         id="rect3889"
         width="60"
         height="60"
         x="77.936462"
         y="704.42572" />
      <path
         style="font-size:40px;font-style:normal;font-variant:normal;font-weight:800;font-stretch:normal;text-align:center;line-height:125%;letter-spacing:0px;word-spacing:0px;writing-mode:lr-tb;text-anchor:middle;fill:url(#linearGradient3897);fill-opacity:1;stroke:#101010;stroke-width:0.50000000000000000;stroke-linecap:round;stroke-linejoin:round;stroke-miterlimit:4;stroke-opacity:1;stroke-dasharray:none;font-family:Open Sans;-inkscape-font-specification:Open Sans Ultra-Bold;opacity:1"
         d="m 101.20209,719.53504 c -2.825537,10e-5 -5.27866,0.6015 -7.375003,1.8125 -2.08334,1.1979 -3.692713,2.9166 -4.8125,5.1562 -1.106773,2.2396 -1.656252,4.8568 -1.65625,7.8125 -2e-6,4.7265 1.14583,8.3438 3.4375,10.8438 2.304679,2.5 5.627593,3.75 9.937503,3.75 3.00779,0 5.71091,-0.5391 8.09375,-1.5938 l 0,-0.031 c 1.37282,0.6588 2.41106,1.3855 3.6875,1.6562 1.28905,0.2604 2.91145,0.375 4.8125,0.375 2.27863,0 4.24477,-0.3698 5.9375,-1.125 1.69269,-0.7682 3.00779,-1.8515 3.90625,-3.2187 0.89841,-1.3802 1.34372,-2.9479 1.34375,-4.7188 -3e-5,-1.9271 -0.50523,-3.5182 -1.46875,-4.7812 -0.95054,-1.2761 -2.63283,-2.4557 -5.09375,-3.5625 -2.56512,-1.1718 -4.16408,-1.9948 -4.75,-2.4375 -0.57293,-0.4427 -0.84376,-0.9401 -0.84375,-1.5 -1e-5,-0.5209 0.23176,-0.9609 0.6875,-1.3125 0.45572,-0.3516 1.18488,-0.5313 2.1875,-0.5313 1.94009,0 4.23696,0.6198 6.90625,1.8438 l 2.375,-5.9688 c -3.07294,-1.3671 -6.10679,-2.0311 -9.0625,-2.0312 -3.34637,10e-5 -5.96095,0.7162 -7.875,2.1875 -1.91407,1.4714 -2.875,3.526 -2.875,6.1562 0,1.4063 0.21354,2.6276 0.65625,3.6563 0.45572,1.0286 1.13801,1.9558 2.0625,2.75 0.93749,0.7943 2.35676,1.5911 4.21875,2.4375 2.05728,0.9245 3.31249,1.5442 3.78125,1.8437 0.48176,0.2995 0.8229,0.6068 1.03125,0.9063 0.22134,0.2864 0.34373,0.6094 0.34375,1 -2e-5,0.625 -0.27866,1.1589 -0.8125,1.5625 -0.53387,0.3907 -1.35418,0.5937 -2.5,0.5937 -1.32814,0 -2.78647,-0.2083 -4.375,-0.625 -1.54183,-0.417 -2.86018,-0.8782 -4.28125,-1.5937 l 0,-0.062 c -0.0215,0.01 -0.041,0.022 -0.0625,0.031 -0.0216,-0.011 -0.0409,-0.02 -0.0625,-0.031 l 0,0.062 c -1.15453,0.4721 -2.32637,0.8797 -3.46875,1.2187 -1.18492,0.3515 -2.39325,0.5313 -3.65625,0.5313 -4.179702,0 -6.281263,-2.7552 -6.281253,-8.25 -1e-5,-2.6432 0.502594,-4.7214 1.53125,-6.2188 1.028633,-1.5104 2.476549,-2.25 4.312503,-2.25 1.21092,0 2.35154,0.1615 3.40625,0.5 1.05466,0.3385 2.10154,0.7552 3.15625,1.25 l 2.375,-6.0625 c -2.81252,-1.3412 -5.78908,-2.0311 -8.875,-2.0312 z"
         id="path3893"
         inkscape:connector-curvature="0" />
    </g>
    <text
       xml:space="preserve"
       style="font-size:10px;font-style:normal;font-variant:normal;font-weight:normal;font-stretch:normal;text-align:center;line-height:125%;letter-spacing:0px;word-spacing:0px;writing-mode:lr-tb;text-anchor:middle;fill:#999999;fill-opacity:1;stroke:none;font-family:Open Sans;-inkscape-font-specification:Open Sans"
       x="76.611359"
       y="738.30627"
       id="text3899"
       sodipodi:linespacing="125%"><tspan
         sodipodi:role="line"
         id="tspan3901"
         x="76.611359"
         y="738.30627">Logo</tspan></text>
    <text
       sodipodi:linespacing="125%"
       id="text3903"
       y="739.68811"
       x="158.13127"
       style="font-size:10px;font-style:normal;font-variant:normal;font-weight:normal;font-stretch:normal;text-align:center;line-height:125%;letter-spacing:0px;word-spacing:0px;writing-mode:lr-tb;text-anchor:middle;fill:#999999;fill-opacity:1;stroke:none;font-family:Open Sans;-inkscape-font-specification:Open Sans"
       xml:space="preserve"><tspan
         y="739.68811"
         x="158.13127"
         id="tspan3905"
         sodipodi:role="line">Watermark</tspan></text>
    <text
       sodipodi:linespacing="125%"
       id="text3903-3"
       y="739.45862"
       x="229.36798"
       style="font-size:10px;font-style:normal;font-variant:normal;font-weight:normal;font-stretch:normal;text-align:center;line-height:125%;letter-spacing:0px;word-spacing:0px;writing-mode:lr-tb;text-anchor:middle;fill:#999999;fill-opacity:1;stroke:none;font-family:Open Sans;-inkscape-font-specification:Open Sans"
       xml:space="preserve"><tspan
         y="739.45862"
         x="229.36798"
         id="tspan3905-6"
         sodipodi:role="line">Icon</tspan></text>
  </g>
</svg>
